<svg xmlns="http://www.w3.org/2000/svg" xmlns:xlink="http://www.w3.org/1999/xlink" width="1000" height="650"><path d="M -3.5e-6,-130 H 400 V 130 H -3.5e-6 Z" fill="#0b216a" transform="matrix(2.5,0,0,2.5,8.75e-6,325)"/><g transform="matrix(2.5,0,0,2.5,8.75e-6,325) matrix(2,0,0,2,3.5e-6,-130)"><g id="d" transform="translate(-0.044,-0.253)"><path d="m 21.433,7.395 c -3.635,3.441 -6.041,8.338 -2.718,15.573 0.971,2.383 1.472,5.43 1.446,8.321 h -0.752 c -0.634,-5.391 -2.169,-12.2 -7.925,-12.2 -2.462,0 -4.252,2.119 -4.252,4.048 0,3.095 1.909,5.424 5.756,6.69 -0.583,-1.659 -1.045,-4.245 0.665,-4.245 2.641,0 3.843,3.093 3.876,5.707 h -0.26 c -0.513,0 -0.926,0.401 -0.926,0.899 0,0.499 0.413,0.9 0.926,0.9 h 1.851 c -0.883,2.266 -2.436,3.136 -3.702,3.739 1.937,0.891 4.148,-0.074 4.569,-0.534 -0.051,0.644 -0.068,2.394 0.174,3.57 0.164,0.948 0.572,1.492 1.272,2.248 0.701,-0.756 1.109,-1.3 1.273,-2.248 0.242,-1.176 0.167,-2.926 0.116,-3.57 0.421,0.46 2.69,1.425 4.627,0.534 -1.266,-0.603 -2.819,-1.473 -3.702,-3.739 h 1.851 c 0.513,0 0.926,-0.401 0.926,-0.9 0,-0.498 -0.413,-0.899 -0.926,-0.899 h -0.289 c 0.033,-2.614 1.235,-5.707 3.876,-5.707 1.71,0 1.248,2.586 0.665,4.245 3.847,-1.266 5.756,-3.595 5.756,-6.69 0,-1.929 -1.79,-4.048 -4.252,-4.048 -5.756,0 -7.291,6.809 -7.925,12.2 h -0.781 c -0.026,-2.891 0.475,-5.938 1.446,-8.321 3.323,-7.235 0.975,-12.132 -2.661,-15.573 z" id="a" fill="gold"/><use x="57.25" xlink:href="#a" width="100%" height="100%"/><use y="16" x="28.625" xlink:href="#a" width="100%" height="100%"/></g><g id="c"><path d="M 100,0 H 200 V 65 H 100 Z" fill="#a30000"/><g transform="translate(-0.24458261,0.222717)"><g id="b" fill="none" stroke="#000" stroke-width=".3"><path d="m 189.923,18.376 c 0,0.79 0.315,1.58 0.472,1.843 0.157,0.263 0.235,0.592 0.235,0.592 0,0 0.55,-0.46 0.55,-0.987 0,-0.526 -0.157,-1.25 -0.157,-1.25" fill="#0139ab"/><path d="m 187.096,18.376 c 0,0.066 -0.472,0.395 -0.393,0.987 0.079,0.593 0.314,1.054 0.314,0.988 0,-0.066 0,-0.593 0.55,-0.922 0.55,-0.329 1.414,-0.526 1.414,-0.526" fill="#0139ab"/><path d="m 186.546,16.994 c -1.807,1.119 -1.178,1.711 -1.178,1.711 0,0 0.078,-0.263 0.707,-0.263 0.628,0 1.806,0.329 1.806,0.329" fill="#0139ab"/><path d="m 157.956,19.363 c -0.157,1.054 0.392,1.712 0.392,1.712 0,0 0.629,-0.329 0.55,-1.185 -0.078,-0.856 -0.471,-1.316 -0.471,-1.316" fill="#0139ab"/><path d="m 155.128,18.705 c -0.079,0 -0.707,0.329 -1.178,0.658 -0.471,0.33 -0.393,0.856 -0.393,0.856 0,0 1.414,-0.526 1.885,-0.461 0.471,0.066 0.707,0.329 0.707,0.329" fill="#0139ab"/><path d="m 155.599,17.06 c -1.335,-0.329 -2.278,0.395 -2.199,0.395 0.079,0 1.335,0 1.571,0.395 0.236,0.395 0.864,0.855 0.864,0.855" fill="#0139ab"/><path d="m 158.505,16.27 c -0.157,0 -0.157,-0.526 -0.864,-0.592 -0.706,-0.066 -1.256,0.329 -1.256,0.329 0,0 1.492,0.79 1.571,0.79 0.078,0 0.549,-0.395 0.549,-0.527 z" fill="#0139ab"/><path d="m 111.545,7.69 c 0.111,-0.558 -0.139,-1.466 -0.139,-1.466 0,0 0.5,-0.046 1,0.372 0.5,0.419 0.278,1.094 0.278,1.094" fill="#0139ab"/><path d="m 108.629,7.481 c 0.111,-1.141 -0.75,-1.443 -0.777,-1.443 -0.028,0 0.805,-0.209 1.36,0 0.556,0.209 0.778,1.257 0.778,1.257" fill="#0139ab"/><path d="m 106.241,7.83 c -0.666,-1.024 -1.277,-0.791 -1.277,-0.791 0,0 0.499,-0.396 1.194,-0.28 0.694,0.117 1.305,0.652 1.305,0.629" fill="#0139ab"/><path d="m 106.908,10.11 c -0.611,0.279 -0.778,0.396 -1.278,0.326 -0.5,-0.07 -0.889,-0.093 -0.889,-0.093 0,0 0.306,-0.815 0.695,-0.908 0.388,-0.093 1.083,-0.07 1.083,-0.07" fill="#0139ab"/><path d="m 108.708,15.217 c 0,-0.526 -0.393,-0.79 -0.393,-0.79 0,0 0.55,-0.329 1.1,0.132 0.55,0.461 0.786,1.185 0.786,1.185 v 0" fill="#0139ab"/><path d="m 106.435,15.951 c -0.027,0 -0.277,-0.396 -0.638,-0.536 -0.361,-0.139 -0.695,-0.163 -0.583,-0.163 0.111,0 0,-0.279 0.777,-0.279 0.778,0 1.278,0.21 1.278,0.21" fill="#0139ab"/><path d="m 106.13,17.137 c -1.694,-0.093 -1.861,0.768 -1.805,0.791 0.055,0.024 0.694,0.28 1.083,0.303 0.389,0.023 0.722,0 0.722,0" fill="#0139ab"/><path d="m 106.908,19.138 c -0.861,1.001 -0.695,1.536 -0.611,1.536 0.083,0 0.388,-0.14 0.833,-0.419 0.444,-0.279 0.749,-0.814 0.749,-0.814" fill="#0139ab"/><path d="m 107.609,16.994 c 0.078,0 0.392,-2.106 1.492,-1.974 1.1,0.131 0.707,0.131 1.1,0.263 0.392,0.132 1.178,1.58 1.178,1.58" fill="#ffd128"/><path d="m 186.94,18.231 c -0.167,-0.093 -1.444,-0.651 -0.778,-1.117 0.666,-0.465 4.61,-0.093 4.61,-0.093" fill="#ffd128"/><path d="m 161.003,18.092 c -0.445,-0.14 -0.944,-0.186 -1.5,-0.931 -0.555,-0.745 -0.222,-0.745 -0.444,-0.931 -0.222,-0.186 -0.667,-0.093 -1.444,0.047 -0.778,0.139 -0.556,1.629 -0.556,1.629" fill="#ffd128"/><path d="m 167.612,12.042 c -0.444,0.139 -4.277,1.675 -4.166,2.513 0.112,0.838 2.444,1.303 2.389,1.815 -0.056,0.512 -2.222,0.884 -4.221,0.931 -2,0.046 -2.555,0.325 -3.721,0.139 -1.167,-0.186 -2.888,-1.117 -3.222,-0.046 -0.333,1.07 0.111,1.117 0.111,1.117 0,0 -0.277,0.558 0,1.023 0.278,0.466 0.556,0.745 1.278,0.745 0.722,0 0.944,-0.372 0.944,-0.372 0,0 0.111,0.465 1.388,0.512 1.278,0.046 1.667,-0.466 1.722,-0.466 0.056,0 1.111,0.186 1.611,0.093 0.5,-0.093 1.166,-0.325 1.166,-0.325 0,0 -0.555,0.651 -0.5,0.651 0.056,0 1.111,-0.046 2.222,-0.186 1.111,-0.14 1.944,-0.745 1.888,-0.745 -0.055,0 -0.944,0.838 0.444,0.791 1.389,-0.046 2.056,-0.93 3.055,-0.837 1,0.093 1.555,-0.093 1.555,-0.093 0,0 0.278,-0.373 0.611,-0.559 0.334,-0.186 0.722,-0.232 0.722,-0.232 0,0 0.889,-0.093 0.889,-0.14 0,-0.047 0,-1.163 0,-1.163 0,0 -1.444,-0.094 -1.444,-0.931 0,-0.838 3.888,-1.722 3.888,-1.722 z" fill="#ffd128"/><path d="m 111.517,11.483 c 0.222,-3.816 1.444,-2.233 1.444,-3.071 0,-0.838 -0.5,-1.396 -0.888,-1.396 -0.889,0 -3.111,1.582 -3.111,1.582" fill="#ffd128"/><path d="m 127.013,14.09 c -0.556,-0.14 -9.164,-1.117 -12.052,-2.048 -2.888,-0.931 -4.11,-2.42 -4.332,-3.164 -0.223,-0.745 0.333,-1.955 -1.333,-1.955 -1.667,0 -0.778,1.21 -0.778,1.21 0,0 -1.333,-1.955 -2.333,-0.838 -0.999,1.117 1.222,1.955 1.222,1.955 0,0 -2.149,-0.75 -1.61,0.465 0.905,2.043 2.388,1.303 2.61,1.769 0.222,0.465 -1.111,0.93 -0.889,1.024 0.223,0.093 1.111,0.418 1.667,0.511 0.555,0.094 1.333,0.233 1.333,0.233 l -0.834,0.558 c 0,0 1.556,0.931 2.333,1.164 0.778,0.232 1.777,0 1.722,0 -0.056,0 -1.444,0.512 -1.444,0.512 0,0 0.777,0.372 1.61,0.465 0.834,0.093 1.556,0.14 1.556,0.14 l -0.889,0.325 11.996,2.002 z" fill="#ffd128"/><path d="m 127.79,13.345 c -0.277,0.046 -5.387,3.165 -10.774,3.304 -5.388,0.14 -8.442,-0.093 -8.442,-0.093 0,0 -0.778,-2.141 -2.111,-1.163 -1.333,0.977 -0.278,1.349 -0.278,1.349 0,0 0.223,-0.046 0.556,0.186 0.333,0.233 0.555,0.512 0.555,0.512 0,0 -1.777,-1.21 -1.777,0.233 0,1.443 1.166,0.931 1.111,0.931 -0.056,0 -0.278,1.256 0,1.303 0.277,0.046 1.388,0.279 1.999,0.186 0.611,-0.093 0.556,-0.372 0.722,-0.419 0.167,-0.047 1.111,-0.372 1.278,-0.233 0.166,0.14 -1.056,1.024 -0.833,1.024 0.222,0 2.054,0 2.61,-0.372 0.555,-0.372 0.833,-0.931 0.889,-0.884 0.055,0.046 -0.945,1.117 -0.834,1.117 0.111,0 2.111,0.186 2.611,0.046 0.5,-0.14 0.999,-0.605 0.999,-0.605 0,0 -0.333,0.559 -0.222,0.605 0.111,0.047 1.111,0.093 2.055,-0.186 0.944,-0.279 1.333,-0.512 1.333,-0.512 l -0.277,0.652 c 0,0 1.444,-0.047 2.277,-0.559 0.833,-0.512 1.222,-0.558 1.222,-0.558 0,0 -0.834,0.791 -0.723,0.791 0.112,0 1.611,-0.047 2.278,-0.233 0.666,-0.186 1.333,-0.326 1.333,-0.326 0,0 -0.778,0.652 -0.722,0.652 0.055,0 1.11,0.046 2.443,-0.233 1.333,-0.279 2.277,-0.605 2.277,-0.605 0,0 -1.555,0.931 -1.221,0.931 0.333,0 2.332,0.046 3.332,-0.279 1,-0.326 1.222,-0.652 1.222,-0.652 0,0 3.221,0.093 3.888,-0.326 0.666,-0.418 0.499,-0.605 0.444,-0.558 -0.056,0.047 1.944,0.279 2.999,0.419 1.055,0.139 3.277,0.186 4.776,-0.047 1.5,-0.232 17.828,-5.584 20.828,-5.491 2.999,0.093 3.554,0.698 4.443,0.651 0.888,-0.046 1.388,-0.279 1.388,-0.232 0,0.046 4.388,2.839 10.33,2.652 5.943,-0.186 4.777,-0.465 5.721,-0.512 0.944,-0.046 2.055,0.466 1.944,0.931 -0.111,0.466 -0.611,0.745 -1.222,0.791 -0.611,0.047 -1.277,0.373 -1.277,0.838 0,0.465 0.666,1.117 1.388,1.117 0.722,0 0.944,-0.233 1.166,-0.279 0.223,-0.047 0.445,0.512 1.389,0.279 0.944,-0.233 1.222,-0.465 1.444,-0.512 0.222,-0.047 1.666,-0.093 1.666,-0.14 0,-0.046 0.111,-1.535 0.111,-1.535 0,0 1.555,-0.093 1.555,-0.373 0,-0.279 -0.555,-0.884 -0.888,-1.163 -0.333,-0.279 -0.722,-0.512 -0.722,-0.512 0,0 1.055,0.326 1.277,0.279 0.222,-0.046 0.722,-0.232 0.722,-0.232 0,0 -0.722,-0.699 -1.277,-0.931 -0.556,-0.233 -1.889,-0.466 -1.889,-0.466 0,0 0.778,-0.093 1.389,-0.372 0.611,-0.279 1.166,-0.651 1.166,-0.698 0,-0.047 -1.666,-0.838 -2.943,-0.745 -1.278,0.093 -3.055,0.978 -5.221,0.978 -2.166,0 -4.499,-0.931 -4.499,-0.931 0,0 3.166,0 4.61,-0.047 1.444,-0.046 4.554,-0.605 4.554,-2.326 0,-1.722 -2.388,-2.653 -8.164,-2.746 -5.776,-0.093 -17.47,-0.003 -21.119,0.228 -5.917,0.374 -11.642,0.102 -14.363,0.102 -2.722,0 -3.444,-0.326 -3.499,-1.07 -0.029,-0.39 1.208,-0.525 2.392,-0.585 0.384,-0.019 2.934,-0.364 6.053,-0.364 5.06,0 10.886,0.269 16.406,0.266 5.519,-0.002 8.474,-0.272 8.474,-0.293 0,-0.14 0.111,-0.326 0.166,-0.326 0.056,0 0.445,0.559 1,0.605 0.556,0.047 1.666,-0.093 1.666,-0.093 0,0 0.445,0.419 1.222,0.372 0.778,-0.046 1.111,-0.372 1.111,-0.372 0,0 0.444,0.326 1.277,0.279 0.834,-0.046 1.445,-0.651 1.611,-0.651 0.167,0 0.778,0.093 1.333,-0.093 0.555,-0.186 3.11,-1.582 3.11,-1.582 0,0 -2.221,0.325 -3.554,0.325 -1.333,0 -2.166,-0.419 -3.832,-0.279 -1.667,0.14 -3.444,0.559 -4.388,0.512 -0.306,-0.015 -3.412,0.23 -9.022,0.215 -5.61,-0.015 -11.205,-0.305 -16.585,-0.305 -3.1,0 -5.699,0.321 -6.441,0.321 -2.11,0 -3.999,1.164 -4.221,2.513 -0.222,1.35 1.819,1.335 4.166,2.048 3.133,0.952 31.427,-0.424 35.648,-0.331 4.221,0.094 6.943,0.28 6.943,1.304 0,1.023 -2.833,1.07 -4.888,1.023 -2.055,-0.046 -6.831,-0.512 -10.33,-0.465 -3.499,0.047 -25.992,2.746 -30.047,2.699 -4.054,-0.046 -6.553,-0.233 -6.553,-0.279 0,-0.047 -9.72,0.698 -9.72,0.605 z m 52.216,-8.603 c 0,0 0.278,0.465 0.667,0.651 0.388,0.186 0.944,0.419 0.944,0.419 m 0.722,-0.931 c 0,0 0.389,0.047 0.555,0.233 0.167,0.186 0.556,0.419 0.556,0.419 m 1.555,-0.884 c 0.333,0 0.722,0.558 0.722,0.558" fill="#ffd128"/><path d="m 124.142,14.099 c 0.079,-0.066 0.314,-0.691 0.511,-1.152 0.196,-0.46 0.549,-1.053 0.549,-1.053 0,0 -0.785,0.297 -0.746,0.231 0.04,-0.066 -0.157,-0.987 0.275,-1.646 0.432,-0.658 0.864,-1.02 0.864,-1.283 0,-0.263 -0.432,-0.132 -0.432,-0.658 0,-0.527 -0.196,-1.283 0.314,-1.448 0.511,-0.165 2.082,0.987 2.082,0.921 0,-0.065 -0.354,-1.579 0.314,-1.678 0.668,-0.099 1.61,0.527 1.61,0.527 0,0 0.314,-1.317 0.55,-1.317 0.236,0 0.864,1.021 0.864,1.021 0,0 0.628,-1.086 0.864,-1.086 0.236,0 0.942,1.151 0.942,1.151 0,0 0.354,-0.987 0.825,-0.987 0.471,0 0.825,1.185 0.825,1.185 0,0 0.314,-0.625 0.746,-0.56 0.432,0.066 0.785,1.646 0.785,1.646 0,0 1.14,-1.02 1.886,-0.889 0.746,0.132 0,1.481 0.039,2.073 0.039,0.593 0.746,0.889 0.785,1.317 0.04,0.427 0.04,3.093 0,3.093 -0.039,0 -7.893,1.711 -8.797,1.612 -0.903,-0.098 -5.616,-0.954 -5.655,-1.02 z" fill="#ffd128"/><path d="m 128.318,11.158 c -0.556,0.769 -2.694,2.933 -3.138,3.305 -0.444,0.372 -1.555,0.931 -1.555,0.931 0,0 0.444,0.558 1.222,0.465 0.777,-0.093 1.888,-0.745 1.888,-0.745 0,0 -1.25,0.814 -1.638,1.256 -0.389,0.442 -0.639,1.187 -0.639,1.187 0,0 1.555,-0.023 2.499,-0.675 0.944,-0.651 1.555,-1.186 1.528,-1.186 -0.028,0 -0.917,0.767 -0.862,1.326 0.056,0.558 -0.138,1.024 -0.11,1.024 0.027,0 1.138,-0.396 1.638,-0.722 0.5,-0.325 1.277,-1.07 1.277,-1.07 0,0 -0.277,0.954 -0.111,1.396 0.167,0.442 0.611,1.07 0.583,1.07 -0.027,0 0.778,-0.302 1.195,-0.977 0.416,-0.675 0.555,-1.21 0.555,-1.21 0,0 0.139,0.931 0.583,1.257 0.444,0.326 2.444,0.256 2.444,0.256 0,0 -0.695,-0.14 -0.917,-0.791 -0.222,-0.652 -0.139,-1.42 -0.139,-1.42 0,0 0.501,0.861 0.973,0.954 0.472,0.093 0.86,-0.186 1.194,0 0.333,0.186 0.777,0.815 0.805,0.791 0.028,-0.023 0.944,-0.349 0.444,-1.14 -0.5,-0.791 -1.499,-0.838 -2.027,-1.349 -0.528,-0.512 -0.833,-1.303 -0.833,-1.327 0,-0.023 0.444,1.14 1.111,1.396 0.666,0.256 1.055,0.536 1.999,0.559 0.944,0.023 1.416,0.419 1.416,0.744 0,0.326 -0.083,0.536 -0.083,0.536 0,0 1.083,-0.14 1.083,-1.071 0,-0.93 -0.666,-1.303 -1.388,-1.442 -0.723,-0.14 -2.055,-0.396 -2.361,-0.675 -0.305,-0.279 -0.389,-0.559 -0.389,-0.559 0,0 0.111,0.512 0.722,0.675 0.611,0.163 1.417,0.489 1.972,0.372 0.556,-0.116 1.999,-1.279 1.999,-1.279 0,0 -1.332,-0.14 -2.721,-0.466 -1.388,-0.325 -1.71,-1.465 -1.71,-1.465 z" fill="#ffd128"/><path d="m 130.269,14.922 c 0,0 0.589,-0.527 1.531,-0.56 0.943,-0.032 2.003,0.692 2.003,0.692"/><path d="m 131.133,12.684 c 0,0.099 -0.354,0.625 -0.275,1.382 0.078,0.757 1.139,1.317 1.139,1.317 0,0 1.138,-0.395 1.178,-1.35 0.039,-0.954 -0.158,-1.48 -0.158,-1.48 z" fill="#0139ab"/><path d="m 132.075,12.717 c 0,0 0.039,1.711 0,1.711" stroke-linecap="round"/><path d="m 126.459,10.677 c 0.039,0 0.668,0.23 0.668,0.855 0,0.626 0.275,1.448 1.139,1.448 0.864,0 1.217,-0.362 1.256,-0.329 0.04,0.033 0.589,1.02 1.453,0.889 0.864,-0.132 1.139,-0.889 1.139,-0.889 0,0 0.472,0.987 1.139,0.889 0.668,-0.099 1.061,-0.987 1.061,-0.987 0,0 0.549,0.559 1.138,0.46 0.59,-0.098 1.061,-0.493 1.296,-0.921 0.236,-0.428 0.315,-1.218 0.276,-1.218" fill="#ffd128"/><path d="m 130.858,8.966 c 0,0 0.746,1.908 -1.021,1.875 -1.768,-0.032 -0.864,-0.888 -1.414,-0.921 -0.55,-0.033 -0.825,0 -0.825,0"/><path d="m 132.429,8.801 c 0,0 -0.432,2.205 1.021,2.04 1.453,-0.164 1.806,-1.02 1.806,-1.02"/><path d="m 125.988,7.617 c 0,0 0.196,0.921 0.589,1.48 0.393,0.56 0.707,0.461 1.06,0.56 0,-0.395 0,-0.56 -0.432,-1.086 -0.432,-0.527 -1.217,-0.889 -1.217,-0.954 z" fill="#000" stroke="none"/><path d="m 136.199,9.525 c 0,-0.033 -0.157,-0.691 0.275,-1.283 0.432,-0.593 0.903,-0.724 0.903,-0.724 0,0 0.078,0.526 -0.236,1.053 -0.314,0.526 -0.825,1.053 -0.942,0.954 z" fill="#000" stroke="none"/><path d="m 128.776,9.657 c 0.197,0 0.982,-0.724 1.924,0"/><path d="M 132.978,9.492 C 133.96,8.9 135.02,9.624 135.02,9.624"/><path d="m 130.583,10.085 c 0,0.199 -0.361,0.362 -0.805,0.362 -0.445,0 -0.806,-0.163 -0.806,-0.362 0,-0.2 0.361,-0.362 0.806,-0.362 0.444,0 0.805,0.162 0.805,0.362 z"/><path d="m 134.706,10.019 c 0,0.2 -0.352,0.362 -0.785,0.362 -0.434,0 -0.786,-0.162 -0.786,-0.362 0,-0.2 0.352,-0.362 0.786,-0.362 0.433,0 0.785,0.162 0.785,0.362 z"/><path d="m 129.758,9.624 c 0,0.033 0.039,0.855 0.039,0.855"/><path d="m 133.842,9.591 0.04,0.823"/><ellipse cx="131.997" cy="12.01" rx="1.021" ry=".642" fill="#000" stroke="none"/><path d="m 191.605,17.394 c 0,0 -0.167,0.512 0.056,0.791 0.222,0.279 0.722,0.838 0.722,0.838"/><path d="m 190.105,17.813 c 0,0 -0.833,0.511 -0.777,0.837 0.055,0.326 0.277,0.652 0.277,0.652"/><path d="m 192.938,16.742 c 1.055,0.186 1.055,0.652 1.055,0.652"/><path d="m 155.893,18.138 c -0.222,0.047 -1.111,0.419 -1.111,0.419"/><path d="m 157.504,18.836 c -0.278,0.093 -0.556,-0.046 -0.667,0.419 -0.111,0.466 0.167,0.698 0.167,0.698"/><path d="m 159.892,19.023 c 0.055,0 0.389,0.232 0.389,0.465 0,0.233 -0.222,0.512 -0.222,0.512"/><path d="m 107.074,17.999 c -0.055,0 -0.444,0.279 -0.444,0.605"/><path d="m 171.576,13.758 c -0.55,-0.349 -1.053,-0.844 -1.053,-0.844"/></g><use height="100%" width="100%" xlink:href="#b" y="20"/><use height="100%" width="100%" xlink:href="#b" y="40"/></g></g><use y="65" x="-100" xlink:href="#c" width="100%" height="100%"/><use y="65" x="100" xlink:href="#d" width="100%" height="100%" transform="translate(0.044,0.253)"/></g></svg>